<svg width="32" height="32" viewBox="0 0 32 32" fill="none" xmlns="http://www.w3.org/2000/svg">
<g clip-path="url(#clip0_1_1112)" filter="url(#filter0_d_1_1112)">
<path d="M16.725 15.1728C17.3525 15.1728 17.9659 14.9867 18.4877 14.6381C19.0094 14.2895 19.4161 13.7939 19.6562 13.2142C19.8964 12.6344 19.9592 11.9965 19.8368 11.381C19.7144 10.7656 19.4122 10.2002 18.9685 9.7565C18.5247 9.31278 17.9594 9.0106 17.3439 8.88818C16.7285 8.76575 16.0905 8.82858 15.5108 9.06873C14.931 9.30887 14.4355 9.71553 14.0869 10.2373C13.7382 10.7591 13.5522 11.3725 13.5522 12C13.5533 12.8411 13.8879 13.6475 14.4827 14.2423C15.0774 14.8371 15.8838 15.1717 16.725 15.1728ZM16.725 10.3278C17.0558 10.3278 17.3793 10.4259 17.6544 10.6098C17.9295 10.7936 18.1439 11.0549 18.2705 11.3606C18.3971 11.6663 18.4302 12.0027 18.3656 12.3272C18.301 12.6517 18.1416 12.9498 17.9076 13.1837C17.6736 13.4176 17.3755 13.5769 17.0509 13.6413C16.7264 13.7058 16.39 13.6726 16.0844 13.5459C15.7787 13.4192 15.5175 13.2047 15.3338 12.9295C15.15 12.6544 15.052 12.3309 15.0522 12C15.0525 11.5565 15.2289 11.1312 15.5425 10.8176C15.8561 10.5039 16.2814 10.3276 16.725 10.3272V10.3278Z" fill="#9CA3AF"/>
<path d="M9.79779 13.9863C9.74666 14.1789 9.77407 14.3839 9.87399 14.5563L11.0854 16.6554C11.1343 16.7408 11.1996 16.8156 11.2775 16.8757C11.3554 16.9358 11.4444 16.9799 11.5394 17.0055C11.7321 17.056 11.9368 17.0286 12.1094 16.9293L13.1699 16.3185C13.6471 16.7102 14.1856 17.0205 14.7637 17.237V18.4616C14.7637 18.6605 14.8427 18.8512 14.9834 18.9919C15.124 19.1325 15.3148 19.2116 15.5137 19.2116H17.9365C18.1354 19.2116 18.3262 19.1325 18.4668 18.9919C18.6075 18.8512 18.6865 18.6605 18.6865 18.4616V17.237C19.2646 17.0205 19.8031 16.7102 20.2802 16.3185L21.3407 16.9293C21.5134 17.0286 21.7181 17.056 21.9107 17.0055C22.0057 16.9799 22.0947 16.9358 22.1727 16.8757C22.2506 16.8156 22.3159 16.7408 22.3648 16.6554L23.5762 14.5563C23.6761 14.3839 23.7035 14.1789 23.6524 13.9863C23.5998 13.7945 23.4741 13.631 23.3023 13.5308L22.2418 12.92C22.3472 12.3112 22.3472 11.6888 22.2418 11.0801L23.3023 10.4693C23.4741 10.369 23.5998 10.2055 23.6524 10.0137C23.7035 9.82111 23.6761 9.6161 23.5762 9.44371L22.3648 7.3446C22.3159 7.25922 22.2506 7.18434 22.1727 7.12426C22.0948 7.06418 22.0057 7.02008 21.9107 6.9945C21.7181 6.94481 21.5136 6.97214 21.3407 7.0707L20.2802 7.6815C19.8031 7.2899 19.2646 6.97964 18.6865 6.7632V5.5386C18.6865 5.33969 18.6075 5.14893 18.4668 5.00827C18.3262 4.86762 18.1354 4.7886 17.9365 4.7886H15.5135C15.3146 4.7886 15.1239 4.86762 14.9832 5.00827C14.8426 5.14893 14.7635 5.33969 14.7635 5.5386V6.7632C14.1854 6.97969 13.647 7.29 13.1698 7.68165L12.1093 7.07085C11.9364 6.97229 11.732 6.94496 11.5393 6.99465C11.4443 7.02023 11.3553 7.06433 11.2773 7.12441C11.1994 7.18449 11.1341 7.25937 11.0852 7.34475L9.87399 9.44385C9.77407 9.61625 9.74666 9.82126 9.79779 10.0139C9.85036 10.2057 9.97606 10.3692 10.1479 10.4694L11.2084 11.0802C11.103 11.689 11.103 12.3113 11.2084 12.9201L10.1479 13.5309C9.97609 13.631 9.85039 13.7945 9.79779 13.9863ZM12.7816 13.0958C12.5786 12.3794 12.5786 11.6207 12.7816 10.9043C12.8261 10.7442 12.8162 10.5739 12.7534 10.4201C12.6905 10.2663 12.5784 10.1377 12.4345 10.0547L11.5468 9.54345L12.0082 8.74365L12.895 9.255C13.0386 9.33887 13.2062 9.37231 13.371 9.35003C13.5359 9.32774 13.6885 9.251 13.8047 9.132C14.3252 8.60115 14.9813 8.22319 15.7016 8.03925C15.8627 7.99767 16.0054 7.90372 16.1072 7.77219C16.209 7.64065 16.2642 7.479 16.2641 7.31265V6.2886H17.1865V7.3125C17.1864 7.47885 17.2416 7.6405 17.3434 7.77204C17.4453 7.90357 17.5879 7.99752 17.749 8.0391C18.4693 8.22304 19.1254 8.601 19.6459 9.13186C19.7621 9.25087 19.9148 9.32763 20.0796 9.34992C20.2444 9.3722 20.412 9.33874 20.5556 9.25485L21.4418 8.74365L21.9032 9.54345L21.0155 10.0547C20.8717 10.1378 20.7596 10.2664 20.6968 10.4201C20.6339 10.5739 20.6239 10.7442 20.6683 10.9043C20.8715 11.6206 20.8715 12.3794 20.6683 13.0958C20.6239 13.2558 20.6339 13.4261 20.6968 13.5799C20.7596 13.7336 20.8717 13.8622 21.0155 13.9454L21.9032 14.4566L21.4418 15.2564L20.5556 14.745C20.412 14.6611 20.2444 14.6277 20.0796 14.6499C19.9148 14.6722 19.7621 14.749 19.6459 14.868C19.1254 15.3989 18.4693 15.7768 17.749 15.9608C17.5879 16.0023 17.4453 16.0963 17.3434 16.2278C17.2416 16.3594 17.1864 16.521 17.1865 16.6874V17.7113H16.2635V16.6875C16.2636 16.5212 16.2084 16.3595 16.1066 16.228C16.0048 16.0964 15.8621 16.0025 15.701 15.9609C14.9807 15.777 14.3246 15.399 13.8041 14.8682C13.688 14.7493 13.5354 14.6726 13.3707 14.6503C13.206 14.628 13.0386 14.6613 12.895 14.745L12.0088 15.2562L11.5474 14.4564L12.4351 13.9452C12.5788 13.862 12.6909 13.7335 12.7536 13.5797C12.8163 13.426 12.8262 13.2557 12.7816 13.0958Z" fill="#9CA3AF"/>
<path d="M26.749 6.89206C25.8056 5.04441 24.3705 3.493 22.6018 2.40875C20.8332 1.32449 18.7995 0.749464 16.725 0.747009C16.526 0.747009 16.3353 0.826027 16.1946 0.966679C16.054 1.10733 15.975 1.2981 15.975 1.49701C15.975 1.69592 16.054 1.88669 16.1946 2.02734C16.3353 2.16799 16.526 2.24701 16.725 2.24701C18.9151 2.24722 21.0415 2.98475 22.7614 4.34077C24.4813 5.69679 25.6947 7.59234 26.2059 9.72202C26.7172 11.8517 26.4967 14.0915 25.5798 16.0805C24.6629 18.0696 23.1031 19.692 21.1518 20.6865C19.721 21.4178 18.1312 21.7831 16.5247 21.7496C14.9182 21.7162 13.3451 21.2851 11.946 20.4949C10.5469 19.7047 9.3654 18.5801 8.50728 17.2216C7.64916 15.863 7.14114 14.313 7.02865 12.7101L8.47075 12.8949L6.73885 8.75491L4.0195 12.3246L5.5147 12.5162C5.59204 14.1914 6.0434 15.8282 6.83568 17.3063C7.62795 18.7844 8.74104 20.0665 10.0933 21.0584C11.4456 22.0503 13.0027 22.727 14.6506 23.0387C16.2984 23.3505 17.9952 23.2894 19.6163 22.8601C21.2375 22.4307 22.742 21.6439 24.0195 20.5573C25.297 19.4708 26.315 18.112 26.999 16.5808C27.683 15.0495 28.0156 13.3846 27.9723 11.7081C27.929 10.0316 27.5111 8.38599 26.749 6.89206Z" fill="#9CA3AF"/>
</g>
<defs>
<filter id="filter0_d_1_1112" x="0" y="0" width="32" height="32" filterUnits="userSpaceOnUse" color-interpolation-filters="sRGB">
<feFlood flood-opacity="0" result="BackgroundImageFix"/>
<feColorMatrix in="SourceAlpha" type="matrix" values="0 0 0 0 0 0 0 0 0 0 0 0 0 0 0 0 0 0 127 0" result="hardAlpha"/>
<feOffset dy="4"/>
<feGaussianBlur stdDeviation="2"/>
<feComposite in2="hardAlpha" operator="out"/>
<feColorMatrix type="matrix" values="0 0 0 0 0 0 0 0 0 0 0 0 0 0 0 0 0 0 0.25 0"/>
<feBlend mode="normal" in2="BackgroundImageFix" result="effect1_dropShadow_1_1112"/>
<feBlend mode="normal" in="SourceGraphic" in2="effect1_dropShadow_1_1112" result="shape"/>
</filter>
<clipPath id="clip0_1_1112">
<rect width="24" height="24" fill="white" transform="translate(4)"/>
</clipPath>
</defs>
</svg>
